# xmcd
#
# Track frame offsets:
#	150
#	5971
#	19856
#	21906
#	24013
#	34536
#	36033
#	47681
#	48890
#	49661
#	61483
#	67263
#	79291
#	93841
#	105791
#	107059
#	107939
#
# Disc length: 1597 seconds
#
# Revision: 7
# Processed by: cddbd v1.5.2PL0 Copyright (c) Steve Scherf et al.
# Submitted via: dBpowerAMP V4.0
#
DISCID=d2063b11
DTITLE=Various Artist - Stay In School Don't Be A Drop Out
DYEAR=1967
DGENRE=
TTITLE0=Announcement [Otis Redding]
TTITLE1=Hucklebuck [Otis Redding]
TTITLE2=Announcement [Carla Thomas]
TTITLE3=Announcement [Carla Thomas]
TTITLE4=I Want To Be Your Baby [Carla Thomas]
TTITLE5=Announcement [Eddie Floyd]
TTITLE6=Holding On With Both Hands [Eddie Floyd]
TTITLE7=Announcement [William Bell]
TTITLE8=Announcement [William Bell]
TTITLE9=It's Happening All Over [William Bell]
TTITLE10=Announcement [Sam and Dave]
TTITLE11=My Reason Fro Living [Sam and Dave]
TTITLE12=Group Discussion
TTITLE13=Soul Sanction [Booker T. and The MG's]
TTITLE14=Announcement [The Mar-Keys]
TTITLE15=Announcement [The Mar-Keys]
TTITLE16=Plantation Inn [The Mar-Keys]
EXTD=
EXTT0=
EXTT1=
EXTT2=
EXTT3=
EXTT4=
EXTT5=
EXTT6=
EXTT7=
EXTT8=
EXTT9=
EXTT10=
EXTT11=
EXTT12=
EXTT13=
EXTT14=
EXTT15=
EXTT16=
PLAYORDER=
